<?xml version="1.0" standalone="no"?>
<!DOCTYPE svg PUBLIC "-//W3C//DTD SVG 20010904//EN"
 "http://www.w3.org/TR/2001/REC-SVG-20010904/DTD/svg10.dtd">
<svg version="1.0" xmlns="http://www.w3.org/2000/svg"
 width="992.000000pt" height="992.000000pt" viewBox="0 0 992.000000 992.000000"
 preserveAspectRatio="xMidYMid meet">
<metadata>
Created by potrace 1.11, written by Peter Selinger 2001-2013
</metadata>
<g transform="translate(0.000000,992.000000) scale(0.100000,-0.100000)"
fill="#000000" stroke="none">
<path d="M4745 9642 c-1 -2 -41 -5 -86 -7 -80 -3 -129 -8 -244 -21 -27 -3 -66
-8 -85 -10 -42 -4 -95 -12 -130 -19 -14 -3 -45 -8 -70 -11 -25 -3 -74 -13
-110 -21 -36 -8 -76 -17 -90 -19 -14 -3 -33 -7 -42 -10 -10 -3 -28 -7 -41 -9
-12 -3 -84 -23 -160 -45 -76 -22 -144 -40 -152 -40 -8 0 -15 -5 -15 -11 0 -5
-4 -8 -10 -4 -5 3 -17 1 -27 -4 -10 -5 -81 -33 -158 -62 -619 -231 -1206 -609
-1680 -1084 -156 -156 -213 -219 -314 -345 -42 -52 -78 -97 -81 -100 -8 -8
-131 -178 -165 -230 -17 -25 -32 -47 -35 -50 -25 -23 -211 -353 -286 -505
-102 -209 -216 -482 -239 -575 -1 -3 -4 -12 -8 -20 -8 -22 -41 -123 -43 -135
-1 -5 -9 -37 -18 -70 -52 -188 -95 -381 -111 -504 -2 -14 -4 -26 -5 -26 -2 0
-9 -49 -14 -105 -5 -46 -13 -114 -22 -185 -11 -92 -18 -284 -17 -485 1 -264
10 -402 39 -620 2 -19 6 -48 8 -65 2 -16 6 -41 9 -55 4 -14 8 -38 11 -55 9
-68 29 -166 52 -260 13 -55 26 -109 28 -120 8 -37 57 -199 96 -315 80 -236
225 -563 340 -765 13 -22 34 -60 48 -85 21 -37 85 -141 137 -222 46 -71 217
-304 270 -367 169 -202 428 -465 595 -605 179 -151 502 -386 530 -386 5 0 10
-3 10 -8 0 -4 26 -22 58 -40 31 -18 77 -45 102 -59 147 -86 409 -216 570 -283
133 -56 340 -131 340 -124 0 3 9 0 21 -7 21 -11 133 -45 179 -55 14 -2 36 -9
50 -14 20 -7 202 -49 280 -65 27 -5 105 -18 125 -21 11 -1 20 -3 20 -4 0 -1
14 -3 30 -5 48 -6 107 -14 146 -19 38 -6 123 -14 234 -23 170 -13 716 -5 825
12 14 2 54 7 90 11 77 8 105 12 105 14 0 1 14 3 30 5 84 9 177 25 189 32 4 3
25 7 45 9 20 1 115 23 211 49 96 25 180 47 185 48 6 1 16 6 23 10 6 5 12 5 12
1 0 -3 7 -1 15 6 8 7 15 10 15 7 0 -3 16 1 35 9 19 8 37 14 40 14 11 1 35 9
205 75 427 165 865 417 1240 714 52 41 102 82 111 90 8 9 40 36 70 61 107 89
381 369 494 505 27 33 52 62 55 65 4 3 26 32 51 65 24 33 47 62 50 65 3 3 32
43 65 90 32 47 62 87 66 88 5 2 8 8 8 13 0 6 5 15 10 22 21 25 117 176 162
255 10 17 28 49 39 70 111 194 255 508 334 727 32 88 116 366 129 427 3 13 10
41 15 63 5 22 12 51 15 65 18 88 35 180 40 210 3 19 8 46 10 60 3 14 7 45 10
70 3 25 8 70 11 100 4 30 8 71 11 90 28 251 24 725 -11 1015 -3 22 -6 56 -9
75 -2 19 -7 53 -11 75 -4 22 -8 51 -10 65 -15 132 -116 541 -164 663 -6 15 -8
27 -5 27 4 0 2 6 -4 13 -5 6 -17 35 -25 62 -15 50 -84 222 -134 335 -48 108
-228 457 -242 470 -3 3 -15 21 -25 40 -11 19 -60 98 -111 175 -129 198 -231
331 -445 579 -47 56 -286 291 -356 351 -38 33 -84 75 -103 93 -18 17 -36 32
-40 32 -3 0 -17 10 -31 23 -62 57 -352 267 -369 267 -5 0 -11 4 -13 8 -3 8
-87 62 -216 139 -267 159 -773 383 -992 438 -8 2 -63 18 -121 34 -117 33 -358
89 -421 96 -23 3 -44 7 -47 9 -3 2 -33 7 -66 10 -33 4 -73 9 -90 12 -16 3 -48
7 -70 9 -22 2 -69 6 -105 10 -36 3 -94 8 -130 11 -77 6 -520 11 -525 6z m570
-526 c22 -3 65 -7 95 -11 86 -9 164 -19 225 -29 17 -3 44 -8 60 -10 29 -5 211
-42 247 -50 462 -113 930 -320 1333 -590 149 -99 354 -255 413 -313 17 -18 32
-30 32 -28 0 10 203 -188 310 -301 113 -120 360 -421 360 -439 0 -3 5 -11 10
-18 41 -48 50 -62 50 -72 0 -7 7 -18 15 -25 15 -12 166 -262 202 -332 45 -89
123 -250 123 -254 0 -2 11 -27 24 -56 70 -155 189 -509 201 -598 2 -14 4 -25
5 -25 1 0 3 -7 5 -15 2 -8 7 -26 10 -40 4 -14 8 -34 10 -45 2 -11 6 -33 10
-50 3 -16 8 -46 11 -65 3 -19 8 -42 11 -50 3 -8 8 -35 10 -60 2 -25 6 -52 9
-60 3 -8 8 -42 10 -75 3 -33 7 -71 9 -85 26 -135 26 -802 1 -935 -4 -23 -17
-127 -21 -170 -2 -16 -4 -30 -5 -30 -2 0 -9 -36 -15 -81 -2 -23 -7 -48 -9 -55
-3 -8 -8 -31 -11 -52 -3 -21 -9 -47 -15 -56 -5 -10 -7 -20 -5 -23 8 -8 -94
-382 -124 -453 -5 -11 -17 -42 -26 -70 -52 -148 -182 -432 -270 -585 -21 -36
-46 -81 -57 -99 -11 -19 -42 -68 -69 -109 -27 -41 -49 -78 -49 -83 0 -4 -3 -9
-7 -11 -5 -1 -37 -43 -73 -93 -35 -49 -69 -95 -75 -101 -5 -7 -26 -31 -45 -55
-128 -160 -331 -370 -479 -500 -41 -35 -84 -73 -97 -84 -13 -11 -36 -30 -51
-42 -15 -12 -39 -31 -52 -42 -13 -12 -27 -21 -30 -21 -3 0 -17 -10 -31 -22
-39 -36 -312 -223 -350 -241 -8 -4 -33 -18 -55 -32 -43 -26 -227 -128 -235
-131 -3 0 -66 -30 -140 -66 -113 -55 -188 -85 -395 -164 -11 -4 -22 -8 -25 -9
-3 0 -50 -15 -105 -32 -116 -37 -199 -60 -235 -67 -14 -2 -45 -9 -70 -15 -55
-14 -76 -18 -117 -24 -17 -3 -35 -7 -40 -10 -4 -3 -37 -8 -73 -12 -36 -4 -68
-9 -71 -11 -5 -3 -45 -8 -154 -20 -31 -3 -131 -12 -220 -19 -59 -5 -454 -5
-505 -1 -19 2 -78 7 -130 10 -52 4 -102 9 -110 11 -8 3 -40 7 -70 10 -30 3
-66 8 -80 10 -14 3 -43 7 -65 11 -22 3 -92 17 -155 30 -143 31 -136 29 -190
45 -25 7 -54 14 -65 16 -28 5 -185 56 -280 91 -309 114 -653 290 -924 474
-357 242 -691 547 -946 864 -47 58 -100 127 -117 153 -17 25 -34 48 -38 51
-11 9 -70 101 -70 110 0 4 -4 10 -8 12 -17 7 -156 249 -232 403 -109 221 -207
470 -260 660 -22 79 -52 190 -55 210 -2 11 -7 31 -10 45 -3 14 -10 48 -16 75
-6 28 -13 61 -16 75 -8 42 -38 250 -48 335 -25 227 -26 789 -1 920 2 11 7 47
10 80 4 33 9 71 11 85 2 14 7 45 10 70 3 25 8 52 11 61 3 10 6 30 9 45 13 95
75 341 124 489 61 186 98 281 181 460 220 478 550 928 956 1303 106 99 117
108 209 182 44 35 82 67 85 70 3 3 20 16 39 29 19 13 73 52 120 86 88 63 251
168 323 208 23 12 52 29 67 37 34 20 174 94 181 95 3 1 50 23 105 49 123 58
124 58 210 92 204 79 496 165 645 190 14 2 36 7 50 10 14 3 39 8 55 10 17 2
41 6 55 9 67 13 205 30 329 40 35 3 66 7 68 9 5 5 591 -2 638 -8z"/>
<path d="M3368 6605 c-1 -2 -21 -6 -43 -9 -133 -20 -325 -178 -398 -327 -54
-111 -73 -231 -54 -354 16 -100 76 -204 177 -305 131 -132 240 -180 397 -175
99 3 128 10 219 56 79 40 206 160 253 240 35 57 59 118 70 169 10 48 9 199 -2
240 -15 57 -22 79 -39 108 -10 17 -18 35 -19 40 -4 19 -69 102 -118 150 -81
79 -173 136 -239 148 -14 3 -31 9 -37 13 -10 8 -159 13 -167 6z"/>
<path d="M6413 6594 c-184 -48 -371 -229 -424 -412 -29 -97 -31 -242 -5 -327
2 -5 4 -13 5 -17 5 -18 69 -129 91 -159 39 -50 103 -111 170 -159 105 -76 263
-107 393 -75 185 44 377 227 435 415 26 83 22 246 -7 330 -41 118 -110 211
-224 303 -48 39 -127 85 -147 85 -3 1 -18 6 -35 13 -44 17 -191 19 -252 3z"/>
<path d="M2964 4005 c-21 -27 -46 -55 -54 -64 -9 -9 -54 -61 -100 -116 -47
-55 -97 -113 -112 -130 -33 -35 -34 -44 -10 -71 9 -11 42 -49 72 -84 90 -107
162 -181 319 -330 9 -8 63 -53 121 -100 58 -47 107 -87 110 -90 16 -16 200
-136 283 -185 182 -106 473 -232 601 -260 21 -5 82 -23 106 -32 8 -3 24 -7 35
-8 11 -2 56 -10 100 -19 44 -9 98 -19 120 -22 22 -3 46 -7 53 -9 25 -9 222
-19 362 -19 166 0 286 9 409 30 47 8 100 17 116 20 17 2 38 7 47 10 9 3 25 7
37 9 121 23 455 142 551 195 8 5 40 21 70 36 30 15 95 51 144 81 49 29 92 53
97 53 4 0 9 4 11 8 2 4 30 26 63 48 199 132 448 357 637 574 75 87 98 116 98
128 0 8 -114 162 -250 339 l-17 22 -61 -78 c-84 -108 -249 -279 -357 -368 -49
-41 -100 -84 -113 -94 -12 -10 -26 -19 -31 -19 -5 0 -11 -3 -13 -7 -11 -25
-267 -182 -427 -262 -183 -92 -472 -193 -621 -217 -14 -2 -41 -7 -60 -10 -137
-26 -426 -36 -540 -20 -25 4 -63 9 -85 11 -22 2 -52 7 -67 10 -16 3 -38 7 -50
9 -38 7 -82 17 -98 23 -8 3 -23 8 -33 10 -42 8 -217 68 -276 94 -35 16 -70 29
-77 29 -7 0 -14 3 -16 8 -1 4 -34 23 -73 42 -75 37 -313 193 -355 232 -14 13
-46 40 -72 61 -53 42 -306 294 -383 379 -60 68 -126 144 -152 177 l-19 23 -40
-47z"/>
</g>
</svg>
